<svg xmlns="http://www.w3.org/2000/svg" viewBox="0 0 3846.3 1058.54"><defs><style>.cls-1{fill:#004f9f;}.cls-2{fill:#fff;}</style></defs><g id="Ebene_2" data-name="Ebene 2"><g id="Ebene_1-2" data-name="Ebene 1"><path id="Original" class="cls-1" d="M834.3,105.75,430.73,0,27.14,105.85A850.26,850.26,0,0,0,0,319.57c0,316.82,173.54,593.1,430.74,739,257.19-145.88,430.73-422.15,430.73-739A850.2,850.2,0,0,0,834.3,105.75Z"/><path id="Weißer_Grund" data-name="Weißer Grund" class="cls-2" d="M809.85,134.18,430.79,35.52,51.71,134.26A788.46,788.46,0,0,0,26.22,333.65c0,295.55,163,553.29,404.58,689.37C672.37,886.93,835.37,629.2,835.37,333.65A788.08,788.08,0,0,0,809.85,134.18Z"/><g id="Bunte_Flächen" data-name="Bunte Flächen"><path class="cls-1" d="M439.06,480.41v521.18C623,894.2,758.16,712.22,803,497.1Q621.4,480.77,439.06,480.41Z"/><path class="cls-1" d="M422.54,54.34,67,147.59A771.26,771.26,0,0,0,55.43,480.85q183.14-16.62,367.11-17Z"/></g><path class="cls-1" d="M1101,489.09l-31.4-169.19h39.18l11.68,79.15q1.56,13.23,3.38,26.59t3.37,26.86h1q2.6-13.49,5.06-26.86t5.06-26.59l18.16-79.15h32.44l18.17,79.15q2.58,13,5.06,26.33t5.06,27.12h1q1.8-13.74,3.5-27t3.5-26.46l11.68-79.15h36.59l-30.1,169.19h-48l-16.61-76.81q-2.08-9.86-3.76-19.85t-3-19.33h-1q-1.56,9.33-3.25,19.33T1164,412.28l-15.83,76.81Z"/><path class="cls-1" d="M1307.84,489.09V319.9h105.88v32.17H1346v34h57.61V418H1346v38.92h70.33v32.18Z"/><path class="cls-1" d="M1459.15,489.09V319.9h61a118.45,118.45,0,0,1,25.3,2.59,57.61,57.61,0,0,1,20.63,8.7,43.36,43.36,0,0,1,14,16.21q5.19,10.13,5.19,25.18,0,18.68-8.18,30.75a49.8,49.8,0,0,1-21.92,18l38.4,67.73h-42.81l-32.44-61h-21v61Zm38.15-91.34H1517q15,0,23-6.36t7.91-18.81q0-12.46-7.91-17.39t-23-4.93H1497.3Z"/><path class="cls-1" d="M1627.85,489.09V319.9H1667L1711.15,404l16.61,37.36h1q-1.29-13.48-3-30.1a312.13,312.13,0,0,1-1.69-31.66V319.9h36.33V489.09h-39.18l-44.12-84.33-16.6-36.86h-1q1.29,14,3,30.11a300.16,300.16,0,0,1,1.69,31.14v59.94Z"/><path class="cls-1" d="M1809.16,489.09V319.9H1915v32.17H1847.3v34h57.61V418H1847.3v38.92h70.33v32.18Z"/><path class="cls-1" d="M1960.46,489.09V319.9h61a118.45,118.45,0,0,1,25.3,2.59,57.61,57.61,0,0,1,20.63,8.7,43.36,43.36,0,0,1,14,16.21q5.19,10.13,5.19,25.18,0,18.68-8.17,30.75a49.82,49.82,0,0,1-21.93,18l38.41,67.73h-42.82l-32.44-61h-21v61Zm38.15-91.34h19.72q15,0,23-6.36t7.91-18.81q0-12.46-7.91-17.39t-23-4.93h-19.72Z"/><path class="cls-1" d="M2142.52,426a18.63,18.63,0,0,1-13.88-5.7,21.72,21.72,0,0,1,0-29.07,18.64,18.64,0,0,1,13.88-5.71,18.25,18.25,0,0,1,13.76,5.71q5.44,5.72,5.45,14.53t-5.45,14.54A18.24,18.24,0,0,1,2142.52,426Z"/><path class="cls-1" d="M2235.16,489.09,2184,319.9h40.48l20.24,78.89q3.9,14,6.88,27.11t6.87,27.12h1q3.63-14,6.75-27.12t6.75-27.11l20-78.89H2332l-50.86,169.19Z"/><path class="cls-1" d="M2426.12,492.21a78.26,78.26,0,0,1-31.27-6.1,67.84,67.84,0,0,1-24.26-17.52,80.45,80.45,0,0,1-15.7-27.76q-5.58-16.35-5.58-37.11t5.58-37a76.55,76.55,0,0,1,15.7-27.25,67.41,67.41,0,0,1,24.26-16.87,86.64,86.64,0,0,1,62.54,0,66.67,66.67,0,0,1,24.27,17,78.16,78.16,0,0,1,15.7,27.38q5.57,16.22,5.57,36.72,0,20.76-5.57,37.11a80.77,80.77,0,0,1-15.7,27.76,67.87,67.87,0,0,1-24.27,17.52A78.26,78.26,0,0,1,2426.12,492.21Zm0-33q17.39,0,27.51-14.92t10.12-40.61q0-25.44-10.12-39.71t-27.51-14.27q-17.38,0-27.5,14.27t-10.13,39.71q0,25.68,10.13,40.61T2426.12,459.25Z"/><path class="cls-1" d="M2543.9,489.09V319.9h39.19L2627.21,404l16.6,37.36h1q-1.3-13.48-3-30.1a314.94,314.94,0,0,1-1.68-31.66V319.9h36.33V489.09h-39.19l-44.11-84.33L2576.6,367.9h-1q1.29,14,3,30.11a300.16,300.16,0,0,1,1.69,31.14v59.94Z"/><path class="cls-1" d="M2741.87,426a18.63,18.63,0,0,1-13.88-5.7,21.72,21.72,0,0,1,0-29.07,18.64,18.64,0,0,1,13.88-5.71,18.25,18.25,0,0,1,13.76,5.71q5.45,5.72,5.45,14.53t-5.45,14.54A18.24,18.24,0,0,1,2741.87,426Z"/><path class="cls-1" d="M2851.77,492.21a94.82,94.82,0,0,1-33.09-6.1,86.13,86.13,0,0,1-29.45-18.3L2811,441.6a82.28,82.28,0,0,0,20.11,12.72,52.76,52.76,0,0,0,21.67,4.93q11.93,0,17.77-4.41a14.18,14.18,0,0,0,5.84-11.94,13,13,0,0,0-1.69-6.74,16.22,16.22,0,0,0-4.93-5.07,47.42,47.42,0,0,0-7.78-4.15l-10-4.28L2830,413.32a65.63,65.63,0,0,1-12.59-6.75,55.45,55.45,0,0,1-10.9-9.73,43.81,43.81,0,0,1-7.65-13,46,46,0,0,1-2.86-16.73,44.86,44.86,0,0,1,4.41-19.6,48.72,48.72,0,0,1,12.46-16.08,59.25,59.25,0,0,1,19.07-10.77,72.38,72.38,0,0,1,24.27-3.9,78.73,78.73,0,0,1,29.19,5.71,73.89,73.89,0,0,1,25.3,16.61l-19.46,24.13a74,74,0,0,0-16.61-10,47,47,0,0,0-18.42-3.5q-9.87,0-15.7,4a13,13,0,0,0-5.84,11.29,11.1,11.1,0,0,0,2,6.62,19,19,0,0,0,5.44,4.93,56,56,0,0,0,8.18,4.15q4.66,2,10.12,4.28l21.8,8.82q15.57,6.24,24.52,17.13t8.95,28.81a48,48,0,0,1-16.73,36.72,62.2,62.2,0,0,1-20.11,11.42A79.78,79.78,0,0,1,2851.77,492.21Z"/><path class="cls-1" d="M2954,489.09V319.9h38.15V489.09Z"/><path class="cls-1" d="M3040.83,489.09V319.9H3146.7v32.17H3079v34h57.61V418H3079v38.92h70.33v32.18Z"/><path class="cls-1" d="M3192.13,489.09V319.9h41.78l27.25,75.25q2.6,7.53,4.93,15.44t4.93,15.7h1q2.59-7.79,4.8-15.7t4.8-15.44l26.73-75.25h41.53V489.09h-34.78v-62q0-6.22.52-13.75t1.3-15.18q.78-7.65,1.55-15.05t1.56-13.63h-1l-13.75,40.22-24.14,64.62h-21L3236,409.68l-13.49-40.22h-1q.78,6.23,1.56,13.63t1.55,15.05q.78,7.65,1.3,15.18t.52,13.75v62Z"/><path class="cls-1" d="M3398.77,489.09V319.9h105.88v32.17h-67.73v34h57.61V418h-57.61v38.92h70.32v32.18Z"/><path class="cls-1" d="M3550.08,489.09V319.9h39.18L3633.38,404,3650,441.34h1q-1.31-13.48-3-30.1a312.13,312.13,0,0,1-1.69-31.66V319.9h36.33V489.09H3643.5l-44.12-84.33-16.6-36.86h-1q1.29,14,3,30.11a297.41,297.41,0,0,1,1.69,31.14v59.94Z"/><path class="cls-1" d="M3781.47,492.21a94.91,94.91,0,0,1-33.09-6.1,86.13,86.13,0,0,1-29.45-18.3l21.8-26.21a82.28,82.28,0,0,0,20.11,12.72,52.76,52.76,0,0,0,21.67,4.93q11.92,0,17.77-4.41a14.16,14.16,0,0,0,5.84-11.94,13,13,0,0,0-1.69-6.74,16.07,16.07,0,0,0-4.92-5.07,48,48,0,0,0-7.79-4.15l-10-4.28-22.06-9.34a65.55,65.55,0,0,1-12.58-6.75,55.17,55.17,0,0,1-10.9-9.73,43.62,43.62,0,0,1-7.66-13,46.22,46.22,0,0,1-2.85-16.73,44.72,44.72,0,0,1,4.41-19.6,48.69,48.69,0,0,1,12.45-16.08,59.3,59.3,0,0,1,19.08-10.77,72.32,72.32,0,0,1,24.26-3.9,78.82,78.82,0,0,1,29.2,5.71,74,74,0,0,1,25.3,16.61l-19.47,24.13a73.79,73.79,0,0,0-16.61-10,47,47,0,0,0-18.42-3.5q-9.87,0-15.7,4a13,13,0,0,0-5.84,11.29,11.1,11.1,0,0,0,1.95,6.62,19.07,19.07,0,0,0,5.45,4.93,55.4,55.4,0,0,0,8.17,4.15q4.68,2,10.12,4.28l21.8,8.82q15.57,6.24,24.52,17.13t9,28.81a48,48,0,0,1-16.74,36.72,62.2,62.2,0,0,1-20.11,11.42A79.74,79.74,0,0,1,3781.47,492.21Z"/><path class="cls-1" d="M1160.64,740.78a93.87,93.87,0,0,1-32.57-5.57,73.5,73.5,0,0,1-26.34-16.48,76.2,76.2,0,0,1-17.52-27.12q-6.36-16.22-6.36-37.5,0-21,6.49-37.5a81.5,81.5,0,0,1,17.78-27.89,76,76,0,0,1,26.34-17.39,85.74,85.74,0,0,1,31.92-6q18.42,0,31.66,6.75a80.88,80.88,0,0,1,21.53,15.31l-20,24.39a72.91,72.91,0,0,0-13.75-9.6q-7.27-3.9-18.17-3.89a42.58,42.58,0,0,0-18,3.76,40.89,40.89,0,0,0-14.15,10.77,49.14,49.14,0,0,0-9.21,17.13,74.71,74.71,0,0,0-3.24,22.83q0,26.22,11.81,40.62t35.68,14.4a39.39,39.39,0,0,0,10.12-1.3,20.47,20.47,0,0,0,8-3.89V673.57h-28V642.43h61.76v77.85q-8.82,8.57-23.36,14.54A84.81,84.81,0,0,1,1160.64,740.78Z"/><path class="cls-1" d="M1276.71,737.67v-60.2l-51.13-109h41l15.05,38.92q3.63,9.6,6.88,18.55t6.87,18.82h1q3.63-9.87,7.14-18.82t7.13-18.55L1326,568.48h40l-51.13,109v60.2Z"/><path class="cls-1" d="M1382.48,737.67V568.48h41.78l27.25,75.25q2.58,7.53,4.93,15.44t4.93,15.7h1q2.58-7.79,4.8-15.7t4.8-15.44l26.73-75.25h41.52V737.67h-34.78v-62q0-6.23.52-13.75t1.3-15.19q.78-7.65,1.56-15.05t1.55-13.62h-1l-13.76,40.22-24.13,64.62h-21l-24.13-64.62L1412.84,618h-1q.78,6.23,1.56,13.62t1.56,15.05q.78,7.66,1.3,15.19t.51,13.75v62Z"/><path class="cls-1" d="M1574.92,737.67V568.48h39.19l44.12,84.07,16.6,37.37h1q-1.3-13.49-3-30.1a312.28,312.28,0,0,1-1.69-31.66V568.48h36.33V737.67h-39.18l-44.12-84.34-16.61-36.85h-1q1.31,14,3,30.1a300.2,300.2,0,0,1,1.69,31.15v59.94Z"/><path class="cls-1" d="M1724.14,737.67l52.94-169.19H1823L1876,737.67h-40.49l-10.38-40.22h-51.64l-10.38,40.22ZM1785.38,652l-4.15,15.58h36.07L1813.41,652q-3.65-12.71-7-27t-6.75-27.5h-1q-3.12,13.5-6.36,27.63T1785.38,652Z"/><path class="cls-1" d="M1947.34,740.78a94.81,94.81,0,0,1-33.09-6.09,86.34,86.34,0,0,1-29.45-18.3l21.79-26.21a82.53,82.53,0,0,0,20.12,12.72,52.75,52.75,0,0,0,21.66,4.93q11.94,0,17.78-4.41a14.18,14.18,0,0,0,5.84-11.94,13,13,0,0,0-1.69-6.75,16.09,16.09,0,0,0-4.93-5.06,46.67,46.67,0,0,0-7.78-4.15l-10-4.28-22.06-9.34a65.63,65.63,0,0,1-12.59-6.75,55.77,55.77,0,0,1-10.9-9.73,43.94,43.94,0,0,1-7.65-13,46.06,46.06,0,0,1-2.86-16.74,44.79,44.79,0,0,1,4.41-19.59A48.76,48.76,0,0,1,1908.41,580a59.57,59.57,0,0,1,19.08-10.77,72.53,72.53,0,0,1,24.26-3.89,78.53,78.53,0,0,1,29.19,5.71,73.89,73.89,0,0,1,25.3,16.61l-19.46,24.13a74,74,0,0,0-16.61-10,46.88,46.88,0,0,0-18.42-3.5q-9.87,0-15.7,4a12.93,12.93,0,0,0-5.84,11.29,11.1,11.1,0,0,0,2,6.62,18.78,18.78,0,0,0,5.45,4.92,54.44,54.44,0,0,0,8.17,4.16q4.67,1.93,10.12,4.28l21.8,8.82q15.57,6.23,24.52,17.13t9,28.8a48,48,0,0,1-16.73,36.72,62,62,0,0,1-20.12,11.42A79.39,79.39,0,0,1,1947.34,740.78Z"/><path class="cls-1" d="M2035.36,737.67V568.48h38.15V737.67Z"/><path class="cls-1" d="M2174.79,740.78q-33,0-50.34-19.46t-17.39-62V568.48h38.41v94.71q0,24.91,7.52,34.78t21.8,9.86q14.27,0,22.06-9.86t7.78-34.78V568.48h36.85V659.3q0,42.57-17,62T2174.79,740.78Z"/><path class="cls-1" d="M2275,737.67V568.48h41.78L2344,643.73q2.59,7.53,4.94,15.44t4.93,15.7h1q2.6-7.79,4.8-15.7t4.81-15.44l26.72-75.25h41.52V737.67H2398v-62q0-6.23.52-13.75t1.3-15.19q.78-7.65,1.55-15.05t1.56-13.62h-1l-13.75,40.22L2364,722.88h-21l-24.14-64.62L2305.32,618h-1q.78,6.23,1.56,13.62t1.55,15.05q.78,7.66,1.3,15.19t.52,13.75v62Z"/><path class="cls-1" d="M2528,737.67V567.43h26l32.7,90.83q3.11,8.84,6.1,17.78t6.09,17.77h1Q2603,685,2605.69,676t5.84-17.78l32.18-90.83h26.21V737.67h-20.24V644q0-11.41,1-25.17t1.81-25.17h-1L2638,632.31l-32.18,88.23h-14.27l-32.18-88.23-13.49-38.66h-1q.78,11.42,1.68,25.17t.91,25.17v93.68Z"/><path class="cls-1" d="M2690.23,737.67l57.61-170.24h24.4l57.61,170.24h-23.1l-16.09-51.9h-62l-16.35,51.9Zm51.9-95.24-8,26h51.12l-8-26q-4.68-14.26-8.82-28.41T2760,585.08h-1q-3.89,14.79-8,28.94T2742.13,642.43Z"/><path class="cls-1" d="M2911.56,740.78a79.14,79.14,0,0,1-31-6,67.41,67.41,0,0,1-24.26-17.26,80.34,80.34,0,0,1-15.83-27.77q-5.72-16.47-5.71-37.24,0-20.49,5.84-36.85a81.31,81.31,0,0,1,16.22-27.76,69.89,69.89,0,0,1,24.78-17.52,79.45,79.45,0,0,1,31.27-6.1,68,68,0,0,1,16.22,1.82,66.71,66.71,0,0,1,13.49,4.8,61,61,0,0,1,10.9,6.75,74.11,74.11,0,0,1,8.44,7.65l-11.94,14a61.85,61.85,0,0,0-15-11.41q-8.57-4.68-21.54-4.68a55,55,0,0,0-23.36,4.81,48.79,48.79,0,0,0-17.64,13.75,65,65,0,0,0-11.29,21.67,94.48,94.48,0,0,0-4,28.54,102.88,102.88,0,0,0,3.76,28.94,64.42,64.42,0,0,0,10.9,21.93,48.15,48.15,0,0,0,17.64,14q10.52,4.94,24.27,4.93a54.44,54.44,0,0,0,17.26-2.72,37.44,37.44,0,0,0,13.36-7.4V667.34h-36.07v-17.9H2964v71.62q-8.3,8.57-21.79,14.15T2911.56,740.78Z"/><path class="cls-1" d="M2998.65,737.67V567.43h42.55q39.45,0,60,21.8t20.5,62.55q0,20.24-5.19,36.19a72.34,72.34,0,0,1-15.31,27,66.2,66.2,0,0,1-24.91,16.87q-14.79,5.83-34,5.84ZM3020.18,720h19.47q29.83,0,44.76-17.9t14.92-50.34q0-32.44-14.92-49.57t-44.76-17.13h-19.47Z"/><path class="cls-1" d="M3152.37,737.67V567.43h98.1V585.6h-76.56v53.46h64.62v18.42h-64.62v61.77h79.15v18.42Z"/><path class="cls-1" d="M3278.75,737.67V567.43h50.6a112,112,0,0,1,23.75,2.34,55.4,55.4,0,0,1,18.42,7.27,34.77,34.77,0,0,1,11.94,12.84q4.27,7.92,4.28,19.08a42.66,42.66,0,0,1-6.36,23,32.73,32.73,0,0,1-18.55,14.15v1q15.57,2.86,25.17,13t9.6,27.77q0,12.45-4.67,21.79a42.43,42.43,0,0,1-13.23,15.57,60.41,60.41,0,0,1-20.5,9.35,104,104,0,0,1-26.21,3.11Zm21.54-97.83h25.17q21.79,0,31.4-7.53t9.6-20.5q0-14.79-10-21t-30-6.23h-26.21Zm0,80.7h29.58q22.07,0,34.26-8.17t12.19-25.3q0-15.83-11.93-23.23t-34.52-7.4h-29.58Z"/><path class="cls-1" d="M3485.29,740.78A76.28,76.28,0,0,1,3461,737a46.42,46.42,0,0,1-19.46-12.46q-8.17-8.68-12.84-22.7t-4.67-34.52V567.43h21.53V667.86q0,15.32,3.12,25.7t8.43,16.6a30.5,30.5,0,0,0,12.59,9,44.09,44.09,0,0,0,15.57,2.72,44.9,44.9,0,0,0,15.83-2.72,31.46,31.46,0,0,0,12.71-9q5.46-6.23,8.57-16.6t3.11-25.7V567.43h20.76v99.91q0,20.5-4.67,34.52t-12.85,22.7A46.43,46.43,0,0,1,3509.42,737,75,75,0,0,1,3485.29,740.78Z"/><path class="cls-1" d="M3584.8,737.67V567.43H3638a110.32,110.32,0,0,1,24,2.47,51.06,51.06,0,0,1,18.94,8.18,38.79,38.79,0,0,1,12.33,14.79q4.41,9.07,4.41,22.31,0,20-10.38,31.92t-28,16.35l43.34,74.22h-24.4l-41-71.88h-30.88v71.88Zm21.54-89.53h28.55q20,0,30.62-8.17t10.64-24.79q0-16.86-10.64-23.61t-30.62-6.75h-28.55Z"/><path class="cls-1" d="M3793.88,740.78a79.1,79.1,0,0,1-31-6,67.45,67.45,0,0,1-24.27-17.26,80.66,80.66,0,0,1-15.83-27.77q-5.7-16.47-5.7-37.24,0-20.49,5.83-36.85a81.47,81.47,0,0,1,16.22-27.76,69.83,69.83,0,0,1,24.79-17.52,79.45,79.45,0,0,1,31.27-6.1,68.08,68.08,0,0,1,16.22,1.82,66.93,66.93,0,0,1,13.49,4.8,61.35,61.35,0,0,1,10.9,6.75,73.14,73.14,0,0,1,8.43,7.65l-11.93,14a62,62,0,0,0-15.05-11.41q-8.56-4.68-21.54-4.68a55,55,0,0,0-23.36,4.81,48.91,48.91,0,0,0-17.65,13.75,65.18,65.18,0,0,0-11.28,21.67,94.16,94.16,0,0,0-4,28.54,102.87,102.87,0,0,0,3.77,28.94,64.24,64.24,0,0,0,10.9,21.93,48,48,0,0,0,17.64,14q10.51,4.94,24.26,4.93a54.39,54.39,0,0,0,17.26-2.72,37.57,37.57,0,0,0,13.37-7.4V667.34h-36.07v-17.9h55.79v71.62q-8.31,8.57-21.8,14.15T3793.88,740.78Z"/><g id="Balken"><rect class="cls-2" x="422.54" y="52.18" width="16.52" height="954.18"/><path class="cls-2" d="M813.92,481.56v16.53l-2.5-.23c-2.82-.25-5.63-.52-8.45-.76Q621.4,480.77,439.06,480.41q-8.28,0-16.52,0-182.16.34-363.92,16.68-5.53.48-11.07,1V481.56l7.88-.71q183.14-16.62,367.11-17c2.73,0,5.44,0,8.17,0s5.56,0,8.35,0q183.75.36,367.1,17l5.26.47Z"/></g><path id="Technik" class="cls-2" d="M333.3,299.08V275.19L311.21,264A86.9,86.9,0,0,0,302.88,244l7.74-23.53-16.9-16.9-23.53,7.74a86.9,86.9,0,0,0-20.07-8.33L239,180.84H215.06l-11.17,22.09a86.9,86.9,0,0,0-20.07,8.33l-23.53-7.74-16.89,16.9L151.13,244A86.44,86.44,0,0,0,142.81,264l-22.1,11.17v23.89l22.1,11.17a86.44,86.44,0,0,0,8.32,20.07l-7.73,23.53,16.89,16.89L183.82,363a86.44,86.44,0,0,0,20.07,8.32l11.17,22.1H239l11.17-22.1A86.44,86.44,0,0,0,270.19,363l23.53,7.73,16.9-16.89-7.74-23.53a86.9,86.9,0,0,0,8.33-20.07ZM227,339.75a52.62,52.62,0,1,1,52.61-52.62A52.62,52.62,0,0,1,227,339.75Z"/><g id="Physik"><circle class="cls-1" cx="635.28" cy="286.64" r="18.87"/><path class="cls-1" d="M635.28,153.51c-29.56,0-53.52,59.6-53.52,133.13s24,133.14,53.52,133.14,53.53-59.61,53.53-133.14S664.84,153.51,635.28,153.51Zm0,252.85c-20.48,0-37.08-53.6-37.08-119.72s16.6-119.72,37.08-119.72,37.09,53.6,37.09,119.72S655.76,406.36,635.28,406.36Z"/><path class="cls-1" d="M520,220.08C505.2,245.67,544.84,296.23,608.52,333s127.28,45.81,142.06,20.21S725.72,277.06,662,240.29,534.76,194.48,520,220.08ZM739,346.5c-10.24,17.74-65,5.32-122.22-27.74s-95.38-74.24-85.14-92,65-5.31,122.23,27.75S749.2,328.77,739,346.5Z"/><path class="cls-1" d="M750.58,220.08c-14.78-25.6-78.38-16.55-142.06,20.21S505.2,327.61,520,353.21,598.37,369.76,662,333,765.36,245.67,750.58,220.08ZM531.6,346.5c-10.24-17.73,27.88-58.91,85.14-92s112-45.48,122.22-27.75-27.87,58.92-85.13,92S541.84,364.24,531.6,346.5Z"/></g><path id="Fläche_Mitte" data-name="Fläche Mitte" class="cls-2" d="M534.7,379.48v207.8l-.68-.07-2.29-.2q-49.23-4.44-98.68-4.53h-4.47q-49.4.09-98.68,4.52l-3,.28V379.48l2.13-.19q49.67-4.52,99.55-4.61h4.47q49.83.1,99.54,4.61l1.43.13Z"/><g id="Mathe"><path class="cls-1" d="M429.42,511c0-13.38,7.6-40.12,12.22-60.41H419c-5.3,26.75-12.92,59.49-20.75,89.46l-36-2.77a774.07,774.07,0,0,0,23.06-86.69H363.71l5.52-27.2L386.3,422h113l-5.54,28.58H476.22c-5.54,20.75-11.53,49.34-11.53,52.8,0,5.53,3,7.37,8.07,7.37a23.81,23.81,0,0,0,5.07-.92l-.92,26.75A54.29,54.29,0,0,1,458,540C437.25,540,429.42,528.47,429.42,511Z"/></g><path class="cls-1" d="M196.85,654.24c.47-26.14,6.84-46.6,10.49-58a229.23,229.23,0,0,1,21.06-46.93A166.63,166.63,0,0,0,247,571.36c29.42,29.3,51.85,29.36,79.63,51.62,9.9,7.93,32,25.74,42.34,56.72,10.72,32.13,5.69,69.13-10.37,95.83-.52.87-1,1.57-1.27,2a266.69,266.69,0,0,1-79.43-80.35,262.26,262.26,0,0,1-27.67-59c4.3,16.71,21.77,80.43,58,115.61a410.7,410.7,0,0,0,39.72,32.91c13.45,9.85,25.29,17.33,34,22.51l-7.43,8.94-36.57-26-1.36.62c-19.65,8.59-39.59,3.13-48.63.65-21.49-5.89-52.62-24-72.45-57.4C196,703.23,196.55,671.18,196.85,654.24Z"/><path class="cls-2" d="M710.7,587.68l-51.43-35.75a11.88,11.88,0,0,0-18.66,9.86l.12,12.07h0l-45,64.77-99.56,50.21a33.14,33.14,0,0,0-4,56.79l95.24,66.19a33.13,33.13,0,0,0,51.83-23.53l12.36-110.82,45-64.77L708,608.6A11.87,11.87,0,0,0,710.7,587.68ZM705,599.89l-17.68,6.38-45,64.77-2.92,26.24h-138c.22-.12.42-.24.64-.35L605,645.06l45-64.78-.17-18.79a1.87,1.87,0,0,1,2.94-1.56l52.73,36.65A1.88,1.88,0,0,1,705,599.89Z"/></g></g></svg>
