<?xml version="1.0" encoding="utf-8"?>
<!-- Generator: Adobe Illustrator 28.2.0, SVG Export Plug-In . SVG Version: 6.00 Build 0)  -->
<svg version="1.1" id="Ebene_1" xmlns="http://www.w3.org/2000/svg" xmlns:xlink="http://www.w3.org/1999/xlink" x="0px" y="0px"
	 viewBox="0 0 595.3 203" style="enable-background:new 0 0 595.3 203;" xml:space="preserve">
<style type="text/css">
	.st0{fill:#003C73;}
</style>
<g>
	<polygon class="st0" points="57.7,51.1 57.7,59.6 84.7,32.7 84.7,24.2 	"/>
	<g>
		<g>
			<g>
				<path class="st0" d="M502,150.1h-1.5v41.4h2.6v-34.8c0-0.5,0-1.1-0.1-1.7l26.9,35.9c0.3,0.4,0.6,0.6,1.1,0.6h1.4v-41.4h-2.6
					v34.8c0,0.6,0,1.1,0.1,1.7l-26.8-35.9c-0.2-0.2-0.3-0.4-0.5-0.4C502.5,150.2,502.3,150.1,502,150.1 M467.8,150.1v41.4h24.8V189
					h-21.8v-17.3h18.1v-2.4h-18.1v-16.7h21.8v-2.5H467.8L467.8,150.1z M435.5,152.5h7.6c3.7,0,6.5,0.7,8.4,2.1s2.9,3.6,2.9,6.6
					c0,1.4-0.3,2.8-0.8,3.9c-0.5,1.1-1.3,2.1-2.3,3c-1,0.8-2.2,1.4-3.7,1.9s-3.1,0.7-4.9,0.7h-7.2V152.5L435.5,152.5z M440.9,172.8
					c0.8,0,1.4,0.1,1.8,0.3s0.7,0.5,1.1,0.9l13.3,16.8c0.2,0.3,0.4,0.5,0.7,0.6s0.5,0.2,0.8,0.2h2.6l-14.3-17.9
					c-0.4-0.5-0.8-0.9-1.3-1.2c1.8-0.2,3.4-0.6,4.9-1.2s2.7-1.4,3.7-2.4s1.8-2.1,2.4-3.4s0.8-2.8,0.8-4.3c0-3.6-1.2-6.3-3.5-8.1
					c-2.4-1.8-5.9-2.8-10.7-2.8h-10.6v41.4h3V173L440.9,172.8L440.9,172.8z M413.5,141.9c-0.1-0.3-0.3-0.6-0.5-0.8s-0.5-0.4-0.8-0.5
					s-0.6-0.2-0.9-0.2c-0.6,0-1.2,0.2-1.7,0.7s-0.7,1-0.7,1.7c0,0.3,0.1,0.6,0.2,0.9s0.3,0.5,0.5,0.7s0.5,0.4,0.8,0.5
					s0.6,0.2,0.9,0.2s0.6-0.1,0.9-0.2c0.3-0.1,0.5-0.3,0.8-0.5c0.2-0.2,0.4-0.4,0.5-0.7s0.2-0.6,0.2-0.9S413.6,142.2,413.5,141.9
					 M401.3,141.9c-0.1-0.3-0.3-0.6-0.5-0.8s-0.5-0.4-0.8-0.5s-0.6-0.2-0.9-0.2s-0.6,0.1-0.9,0.2c-0.3,0.1-0.5,0.3-0.8,0.5
					c-0.2,0.2-0.4,0.5-0.5,0.8s-0.2,0.6-0.2,0.9s0.1,0.6,0.2,0.9s0.3,0.5,0.5,0.7s0.5,0.4,0.8,0.5s0.6,0.2,0.9,0.2s0.6-0.1,0.9-0.2
					c0.3-0.1,0.5-0.3,0.8-0.5c0.2-0.2,0.4-0.4,0.5-0.7s0.2-0.6,0.2-0.9S401.4,142.2,401.3,141.9 M399.8,188.4
					c-1.6-0.7-2.9-1.7-4-2.9s-1.9-2.7-2.5-4.4s-0.9-3.5-0.9-5.4v-25.6h-3v25.6c0,2.3,0.4,4.4,1.1,6.4s1.8,3.7,3.1,5.2
					c1.4,1.5,3,2.6,5,3.5c1.9,0.8,4.1,1.3,6.5,1.3s4.6-0.4,6.5-1.3s3.6-2,5-3.5s2.4-3.2,3.1-5.2s1.1-4.1,1.1-6.4v-25.6h-3v25.6
					c0,1.9-0.3,3.7-0.9,5.4s-1.4,3.1-2.5,4.4s-2.4,2.2-4,2.9s-3.4,1-5.3,1C403.2,189.4,401.4,189.1,399.8,188.4 M350.8,150.1v2.6
					h14.6v38.9h3v-38.9h14.5v-2.6H350.8z M320.9,157.6v13.2h-12.6v2.1h12.6v13.3h2.3v-13.3h12.6v-2.1h-12.6v-13.2H320.9z
					 M267.2,152.5h7.6c3.7,0,6.5,0.7,8.4,2.1s2.9,3.6,2.9,6.6c0,1.4-0.3,2.8-0.8,3.9c-0.5,1.1-1.3,2.1-2.3,3c-1,0.8-2.2,1.4-3.7,1.9
					s-3.1,0.7-4.9,0.7h-7.2V152.5L267.2,152.5z M272.6,172.8c0.8,0,1.4,0.1,1.8,0.3s0.7,0.5,1.1,0.9l13.3,16.8
					c0.2,0.3,0.4,0.5,0.7,0.6s0.5,0.2,0.8,0.2h2.6l-14.3-17.9c-0.4-0.5-0.8-0.9-1.3-1.2c1.8-0.2,3.4-0.6,4.9-1.2s2.7-1.4,3.7-2.4
					s1.8-2.1,2.4-3.4s0.8-2.8,0.8-4.3c0-3.6-1.2-6.3-3.5-8.1c-2.4-1.8-5.9-2.8-10.7-2.8h-10.6v41.4h3V173L272.6,172.8L272.6,172.8z
					 M231.1,150.1v41.4h24.8V189h-21.8v-17.3h18.1v-2.4h-18.1v-16.7h21.8v-2.5H231.1L231.1,150.1z M192.3,150.1v2.6h14.6v38.9h3
					v-38.9h14.6v-2.6H192.3z M187,153.8c-1.4-1.4-3-2.4-4.7-3.1c-1.7-0.7-3.6-1-5.8-1c-1.9,0-3.6,0.3-5.1,0.9
					c-1.5,0.6-2.8,1.4-3.8,2.4s-1.8,2.1-2.3,3.4c-0.5,1.3-0.8,2.6-0.8,4c0,1.8,0.3,3.2,0.9,4.4c0.6,1.2,1.4,2.2,2.4,3
					s2.1,1.4,3.3,1.9c1.2,0.5,2.5,1,3.8,1.4c1.3,0.4,2.6,0.8,3.8,1.3c1.2,0.4,2.4,1,3.3,1.6c1,0.6,1.8,1.4,2.4,2.4
					c0.6,0.9,0.9,2.1,0.9,3.6c0,1.4-0.2,2.6-0.7,3.8s-1.1,2.2-2,3.1s-2,1.5-3.3,2c-1.3,0.5-2.8,0.8-4.4,0.8c-1.2,0-2.3-0.1-3.2-0.4
					c-0.9-0.2-1.8-0.5-2.5-0.9c-0.7-0.4-1.4-0.7-1.9-1.1s-1-0.8-1.4-1.1s-0.7-0.6-1-0.9c-0.3-0.2-0.5-0.4-0.7-0.4
					c-0.3,0-0.6,0.1-0.8,0.4l-0.8,1.3c1.5,1.7,3.2,3,5.2,4s4.3,1.4,7.1,1.4c2.1,0,4-0.3,5.6-1s3-1.6,4.2-2.7c1.1-1.1,2-2.5,2.6-4
					s0.9-3.2,0.9-4.9s-0.3-3.1-0.9-4.3c-0.6-1.1-1.4-2.1-2.4-2.9s-2.1-1.4-3.3-1.9c-1.2-0.5-2.5-1-3.8-1.4c-1.3-0.4-2.6-0.9-3.8-1.3
					c-1.2-0.4-2.4-1-3.3-1.6c-1-0.6-1.8-1.4-2.4-2.3c-0.6-0.9-0.9-2.1-0.9-3.5c0-1.1,0.2-2.1,0.6-3.1s1-1.8,1.8-2.6
					c0.8-0.7,1.7-1.3,2.9-1.8c1.2-0.5,2.5-0.6,4-0.6s2.8,0.2,3.8,0.6c1,0.4,1.9,0.8,2.6,1.2s1.2,0.8,1.6,1.2s0.7,0.5,1,0.5
					c0.3,0,0.6-0.2,0.8-0.5L187,153.8z M124.3,150.1h-1.5v41.4h2.6v-34.8c0-0.5,0-1.1-0.1-1.7l26.9,35.9c0.3,0.4,0.6,0.6,1.1,0.6
					h1.4v-41.4h-2.6v34.8c0,0.6,0,1.1,0.1,1.7l-26.8-35.9c-0.2-0.2-0.3-0.4-0.5-0.4C124.8,150.2,124.6,150.1,124.3,150.1
					 M90.2,150.1v41.4H115V189H93.2v-17.3h18.2v-2.4H93.2v-16.7H115v-2.5H90.2L90.2,150.1z M58,150.1v41.4h3v-19h18.9V170H61v-17.4
					h21.8v-2.5H58z"/>
			</g>
		</g>
	</g>
	<path class="st0" d="M84.7,18.6v-8.2h-27v35.1L84.7,18.6z M107.8,73.4c0,26.5-23.4,26.5-23.4,26.5V73.4H107.8z M133,73.4V50.1H84.7
		V38.4l-27,27v57.8h25.5C83.3,123.2,133,123.2,133,73.4"/>
	<path class="st0" d="M134.8,123.2V95.6c0-45.5,48-45.5,48-45.5v23.3c-21.9,0-21.9,22.2-21.9,22.2v27.6H134.8z"/>
	<path class="st0" d="M237,73.4c0,26.5-23.4,26.5-23.4,26.5V73.4H237z M259.7,73.4V50.1h-72.2v73h26.1
		C213.6,123.2,259.7,123.2,259.7,73.4"/>
	<path class="st0" d="M264.3,123.2V50.1h26.5c11.7,0,21,6.9,21,6.9v-6.9h24.7c44.2,0,46.6,45.5,46.6,45.5v27.6h-24.7V99.9
		c0-26.5-21.9-26.5-21.9-26.5v49.8h-24.7V99.9c0-26.5-21-26.5-21-26.5v49.8H264.3L264.3,123.2z"/>
	<path class="st0" d="M388.3,123.2V99.9h29.3c6.5,0,6.5-4.3,6.5-4.3h-35.9c0-45.5,35.9-45.5,35.9-45.5h30.3v23.3h-30.3
		c-6.5,0-6.5,5.6-6.5,5.6h36.8c0,44.2-36.8,44.2-36.8,44.2H388.3L388.3,123.2z"/>
	<path class="st0" d="M532.7,123.2h-22.8c-51.7,0-51.7-49.8-51.7-49.8V50.1h74.5v23.3h-45.2c-3.3,3.3,0,5.6,0,5.6h22.4v16.6h-14
		c0,4.3,14,4.3,14,4.3h22.8V123.2z"/>
	<path class="st0" d="M229.5,23.2v20.2h20.2V29.1c0,0,0.5-5.9-5.9-5.9H229.5"/>
	<path class="st0" d="M201.9,23.2v20.2h20.2V29.1c0,0,0.5-5.9-5.9-5.9H201.9"/>
</g>
</svg>
